<?xml version="1.0" encoding="UTF-8"?>
<svg version="1.1" xmlns="http://www.w3.org/2000/svg" width="512" height="512">
<path d="M0 0 C1.01790619 0.00215515 2.03581238 0.0043103 3.08456421 0.00653076 C17.69363523 0.05620146 32.02575853 0.30709809 46.375 3.3125 C47.34985352 3.51117676 48.32470703 3.70985352 49.32910156 3.91455078 C97.7109774 14.03517194 141.69928269 35.9516877 177.375 70.3125 C178.3640332 71.26068604 178.3640332 71.26068604 179.37304688 72.22802734 C188.86130305 81.37247479 197.6012044 90.66984009 205.375 101.3125 C206.23306152 102.46355017 207.09113451 103.61459177 207.94921875 104.765625 C213.98736829 112.95680614 219.34595521 121.47054105 224.375 130.3125 C224.73948242 130.94430176 225.10396484 131.57610352 225.47949219 132.22705078 C247.08534998 169.97532572 256.85198095 212.74189997 256.6875 255.9375 C256.68534485 256.95540619 256.6831897 257.97331238 256.68096924 259.02206421 C256.63129854 273.63113523 256.38040191 287.96325853 253.375 302.3125 C253.07698486 303.77478027 253.07698486 303.77478027 252.77294922 305.26660156 C242.65232806 353.6484774 220.7358123 397.63678269 186.375 433.3125 C185.74287598 433.97185547 185.11075195 434.63121094 184.45947266 435.31054688 C175.31502521 444.79880305 166.01765991 453.5387044 155.375 461.3125 C154.22394983 462.17056152 153.07290823 463.02863451 151.921875 463.88671875 C143.73224019 469.92427396 135.22961724 475.30707302 126.375 480.3125 C125.66778809 480.7146875 124.96057617 481.116875 124.23193359 481.53125 C101.09654164 494.5566741 75.92537591 503.30551461 49.9375 508.625 C49.21860596 508.77235596 48.49971191 508.91971191 47.7590332 509.0715332 C33.08339502 511.86090125 18.55831162 512.66142619 3.64770508 512.62817383 C0.70811513 512.6250221 -2.2304558 512.64854926 -5.16992188 512.67382812 C-18.54306192 512.71848737 -31.43916711 511.51301542 -44.625 509.3125 C-46.33055054 509.03031616 -46.33055054 509.03031616 -48.07055664 508.74243164 C-91.33802759 500.97044532 -132.38793216 480.98345309 -165.625 452.3125 C-166.37007813 451.67828125 -167.11515625 451.0440625 -167.8828125 450.390625 C-181.38779833 438.57948485 -194.05918743 425.82889772 -204.625 411.3125 C-205.48149066 410.16255169 -206.33826433 409.01281411 -207.1953125 407.86328125 C-213.23534209 399.67315742 -218.61867614 391.16870382 -223.625 382.3125 C-224.0271875 381.60528809 -224.429375 380.89807617 -224.84375 380.16943359 C-237.8691741 357.03404164 -246.61801461 331.86287591 -251.9375 305.875 C-252.08485596 305.15610596 -252.23221191 304.43721191 -252.3840332 303.6965332 C-255.35789088 288.05024391 -255.99800362 272.57681954 -255.9375 256.6875 C-255.93534485 255.66959381 -255.9331897 254.65168762 -255.93096924 253.60293579 C-255.88129854 238.99386477 -255.63040191 224.66174147 -252.625 210.3125 C-252.42632324 209.33764648 -252.22764648 208.36279297 -252.02294922 207.35839844 C-241.90232806 158.9765226 -219.9858123 114.98821731 -185.625 79.3125 C-184.99287598 78.65314453 -184.36075195 77.99378906 -183.70947266 77.31445312 C-174.56502521 67.82619695 -165.26765991 59.0862956 -154.625 51.3125 C-153.47394983 50.45443848 -152.32290823 49.59636549 -151.171875 48.73828125 C-142.98224019 42.70072604 -134.47961724 37.31792698 -125.625 32.3125 C-124.91778809 31.9103125 -124.21057617 31.508125 -123.48193359 31.09375 C-100.34654164 18.0683259 -75.17537591 9.31948539 -49.1875 4 C-48.46860596 3.85264404 -47.74971191 3.70528809 -47.0090332 3.5534668 C-31.36274391 0.57960912 -15.88931954 -0.06050362 0 0 Z " fill="#43BCFF" transform="translate(255.625,-0.3125)"/>
<path d="M0 0 C10.12323088 8.66522054 16.9924335 18.98031093 18.3515625 32.49609375 C18.53481339 40.10100569 17.60622905 46.85573178 15 54 C14.65195312 55.00740234 14.65195312 55.00740234 14.296875 56.03515625 C9.51515003 67.45035262 -2.86867829 77.01252168 -11.57421875 85.671875 C-12.63489044 86.7306742 -13.69533608 87.78969989 -14.75556946 88.84893799 C-17.50357755 91.59318619 -20.25457769 94.33441455 -23.00628662 97.07495117 C-25.83093149 99.88923884 -28.65263338 102.70647412 -31.47460938 105.5234375 C-36.98025196 111.01845843 -42.48906964 116.51028162 -48 122 C-46.42786857 125.8711517 -43.80142498 128.42954606 -40.85107422 131.28076172 C-40.32718613 131.79530411 -39.80329803 132.3098465 -39.26353455 132.83998108 C-38.12685195 133.9556911 -36.98801689 135.06921148 -35.84728622 136.18078232 C-34.03244039 137.95139235 -32.22579907 139.72999195 -30.42141724 141.51126099 C-25.29062404 146.57510196 -20.15233605 151.63110085 -14.9921875 156.66503906 C-11.83187736 159.74920606 -8.68709238 162.84852925 -5.55115128 165.95746231 C-4.36322936 167.12946708 -3.16981889 168.29593975 -1.97048569 169.4562645 C9.46100506 180.52276837 18.65007513 192.24729849 19.375 208.75 C19.13412516 220.70341387 13.85019856 232.03990414 5.75 240.75 C-4.2949242 250.0915597 -16.87982167 254.8562659 -30.55078125 254.375 C-46.29422015 252.66336904 -56.85935518 242.59241868 -67.62451172 231.8112793 C-68.63220327 230.81259215 -69.64049719 229.8145125 -70.64933777 228.81698608 C-73.3565632 226.1359759 -76.05426211 223.44558255 -78.74937201 220.75239921 C-80.43914822 219.06477005 -82.13104905 217.37930089 -83.82370377 215.6945591 C-89.74387147 209.80203897 -95.65634992 203.90193038 -101.56152344 197.99438477 C-107.04373172 192.51037177 -112.54248691 187.04334721 -118.04919422 181.58394498 C-122.79908785 176.8733902 -127.53722883 172.15122662 -132.26653683 167.42000514 C-135.08159703 164.604184 -137.90100668 161.79310663 -140.73238754 158.99368858 C-143.39387257 156.36144257 -146.04030987 153.71491542 -148.6763401 151.05718613 C-150.09542619 149.63351586 -151.52922655 148.2245588 -152.96357727 146.81626892 C-159.49163256 140.19243207 -164.9551772 132.98238048 -165.5 123.375 C-164.52601329 109.33960181 -154.83481271 100.53336573 -145.36791992 91.09326172 C-144.41720472 90.13818776 -143.4669045 89.18270057 -142.51698303 88.22683716 C-139.9595454 85.65612509 -137.39586135 83.09173366 -134.83050704 80.52892447 C-132.67931359 78.37880837 -130.53112122 76.22570575 -128.38285428 74.07266629 C-123.31021791 68.98897526 -118.23232292 63.91057984 -113.15112305 58.83544922 C-107.93065682 53.62102329 -102.71943933 48.39748346 -97.51264876 43.16940486 C-93.02101479 38.66009172 -88.52352676 34.15667532 -84.02142221 29.65781605 C-81.34175715 26.97995352 -78.66430259 24.29997673 -75.99254417 21.61422348 C-73.478523 19.08752474 -70.95719935 16.56833718 -68.43036461 14.0544548 C-67.07713737 12.7046779 -65.73122589 11.34757855 -64.38565063 9.99017334 C-46.66350206 -7.58188341 -22.11583607 -15.60890007 0 0 Z " fill="#FEFEFF" transform="translate(320,133)"/>
</svg>
